<svg width="21" height="21" viewBox="0 0 21 21" fill="none" xmlns="http://www.w3.org/2000/svg">
<path d="M10.4925 0.015C4.69165 0.015 0 4.83 0 10.785C0 15.495 2.9379 19.5 7.02998 20.97C7.58458 21.105 7.49465 20.715 7.49465 20.43V18.555C4.31692 18.945 4.18201 16.77 3.97216 16.41C3.53747 15.66 2.5182 15.465 2.83298 15.105C3.55246 14.715 4.30193 15.195 5.15632 16.5C5.77088 17.445 6.98501 17.28 7.59957 17.13C7.73448 16.56 8.01927 16.065 8.40899 15.66C5.11135 15.06 3.73233 12.99 3.73233 10.53C3.73233 9.33 4.10707 8.235 4.87152 7.35C4.39186 5.895 4.91649 4.65 4.99143 4.455C6.35546 4.335 7.76445 5.46 7.88437 5.55C8.66381 5.34 9.54818 5.22 10.5375 5.22C11.5268 5.22 12.4111 5.34 13.2056 5.55C13.4754 5.34 14.7794 4.38 16.0535 4.485C16.1285 4.665 16.6381 5.895 16.1884 7.335C16.9529 8.22 17.3276 9.33 17.3276 10.53C17.3276 12.99 15.9486 15.06 12.636 15.66C12.9213 15.947 13.1457 16.2889 13.2955 16.665C13.4454 17.04 13.5203 17.445 13.5203 17.85V20.565C13.5353 20.775 13.5203 21 13.8651 21C18.0171 19.56 21 15.525 21 10.785C21 4.83 16.3083 0 10.5075 0L10.4925 0.015Z" fill="#928B7B"/>
</svg>
