<svg width="21" height="21" viewBox="0 0 21 21" fill="none" xmlns="http://www.w3.org/2000/svg">
<path fill-rule="evenodd" clip-rule="evenodd" d="M4.50037 0C3.3071 -8.79889e-08 2.16267 0.473907 1.31874 1.31752C0.474805 2.16113 0.000458246 3.30537 0 4.49864V16.4996C0 17.6932 0.474145 18.8379 1.31813 19.6819C2.16211 20.5259 3.3068 21 4.50037 21H16.5014C17.6946 20.9995 18.8389 20.5252 19.6825 19.6813C20.5261 18.8373 21 17.6929 21 16.4996V4.49864C20.9995 3.30567 20.5254 2.16169 19.6819 1.31813C18.8383 0.474568 17.6943 0.000458043 16.5014 0H4.50037ZM17.7958 4.50556C17.7958 4.84933 17.6593 5.17902 17.4162 5.4221C17.1731 5.66518 16.8434 5.80174 16.4996 5.80174C16.1559 5.80174 15.8262 5.66518 15.5831 5.4221C15.34 5.17902 15.2034 4.84933 15.2034 4.50556C15.2034 4.16178 15.34 3.83209 15.5831 3.58901C15.8262 3.34593 16.1559 3.20937 16.4996 3.20937C16.8434 3.20937 17.1731 3.34593 17.4162 3.58901C17.6593 3.83209 17.7958 4.16178 17.7958 4.50556ZM10.5026 6.90437C9.5492 6.90437 8.63486 7.2831 7.96071 7.95725C7.28656 8.6314 6.90783 9.54574 6.90783 10.4991C6.90783 11.4525 7.28656 12.3669 7.96071 13.041C8.63486 13.7152 9.5492 14.0939 10.5026 14.0939C11.456 14.0939 12.3703 13.7152 13.0445 13.041C13.7186 12.3669 14.0974 11.4525 14.0974 10.4991C14.0974 9.54574 13.7186 8.6314 13.0445 7.95725C12.3703 7.2831 11.456 6.90437 10.5026 6.90437ZM5.17785 10.4991C5.17785 9.08738 5.73866 7.73345 6.73692 6.73519C7.73518 5.73693 9.08911 5.17612 10.5009 5.17612C11.9126 5.17612 13.2665 5.73693 14.2648 6.73519C15.2631 7.73345 15.8239 9.08738 15.8239 10.4991C15.8239 11.9109 15.2631 13.2648 14.2648 14.2631C13.2665 15.2613 11.9126 15.8222 10.5009 15.8222C9.08911 15.8222 7.73518 15.2613 6.73692 14.2631C5.73866 13.2648 5.17785 11.9109 5.17785 10.4991Z" fill="#928B7B"/>
</svg>
