<svg width="21" height="20" viewBox="0 0 21 20" fill="none" xmlns="http://www.w3.org/2000/svg">
<path d="M19.4508 7.57373e-05H1.54918C1.143 -0.00386109 0.751777 0.14582 0.461344 0.416274C0.17091 0.686729 0.00499374 1.05587 0 1.44269V18.5606C0.00589684 18.9468 0.172211 19.3151 0.462546 19.5849C0.752881 19.8546 1.14359 20.0039 1.54918 19.9999H19.4508C19.857 20.003 20.248 19.8528 20.5383 19.5822C20.8286 19.3116 20.9946 18.9425 21 18.5557V1.43777C20.9928 1.05208 20.826 0.684705 20.5359 0.415492C20.2458 0.146279 19.8558 -0.00300976 19.4508 7.57373e-05ZM6.22598 17.0491H3.10869V7.49674H6.22598V17.0491ZM4.6768 6.19511C4.31926 6.19544 3.96966 6.09476 3.67221 5.90582C3.37476 5.71688 3.14284 5.44816 3.00578 5.13366C2.86872 4.81916 2.83268 4.47302 2.90222 4.13901C2.97177 3.805 3.14377 3.49814 3.39646 3.25725C3.64916 3.01636 3.9712 2.85226 4.32185 2.78571C4.67249 2.71916 5.03598 2.75315 5.36634 2.88338C5.69669 3.01362 5.97907 3.23424 6.17774 3.51734C6.37641 3.80044 6.48246 4.1333 6.48246 4.47381C6.48201 4.70013 6.4347 4.92415 6.34324 5.13304C6.25177 5.34192 6.11796 5.53158 5.94944 5.69116C5.78093 5.85073 5.58102 5.97709 5.36117 6.06301C5.14132 6.14892 4.90583 6.19269 4.6682 6.19183L4.6768 6.19511ZM17.9016 17.0491H14.7843V12.4016C14.7843 11.2951 14.7637 9.87049 13.1646 9.87049C11.5655 9.87049 11.2935 11.077 11.2935 12.3295V17.0491H8.18139V7.49674H11.1696V8.80821H11.2109C11.6275 8.05739 12.643 7.26559 14.1595 7.26559C17.3164 7.25904 17.9016 9.23771 17.9016 11.8033V17.0491Z" fill="#928B7B"/>
</svg>
